<?xml version="1.0" standalone="no"?>
<!DOCTYPE svg PUBLIC "-//W3C//DTD SVG 20010904//EN"
 "http://www.w3.org/TR/2001/REC-SVG-20010904/DTD/svg10.dtd">
<svg version="1.0" xmlns="http://www.w3.org/2000/svg"
 width="1200.000000pt" height="1200.000000pt" viewBox="0 0 1200.000000 1200.000000"
 preserveAspectRatio="xMidYMid meet">
<metadata>
Created by potrace 1.11, written by Peter Selinger 2001-2013
</metadata>
<g transform="translate(0.000000,1200.000000) scale(0.100000,-0.100000)"
fill="#000000" stroke="none">
<path d="M4267 11794 c-1 -1 -27 -4 -57 -7 -135 -14 -249 -45 -378 -104 -237
-108 -482 -335 -601 -556 -23 -43 -153 -277 -288 -520 -135 -243 -258 -464
-273 -492 -15 -27 -92 -167 -172 -310 -79 -143 -158 -285 -175 -315 -16 -30
-76 -138 -133 -240 -56 -102 -114 -205 -127 -230 -14 -25 -30 -51 -35 -58 -13
-15 -19 -10 72 -61 41 -23 82 -46 90 -51 8 -5 42 -23 75 -41 33 -18 134 -73
225 -124 91 -51 197 -109 235 -130 58 -31 223 -122 515 -283 25 -13 74 -40
110 -60 36 -19 116 -64 179 -99 62 -34 115 -63 116 -63 2 0 42 -23 90 -50 48
-28 88 -50 90 -50 2 0 32 -16 67 -36 34 -20 99 -56 143 -79 44 -24 181 -100
305 -168 168 -94 228 -122 236 -113 10 9 477 844 597 1066 22 41 51 92 64 112
12 21 23 39 23 41 0 2 27 52 60 111 33 59 60 110 60 113 0 3 8 17 18 31 17 25
34 55 119 212 17 30 63 114 103 185 74 131 90 161 150 270 18 33 42 75 52 93
46 82 58 104 115 207 34 61 75 135 92 165 18 30 41 74 53 98 12 23 24 42 27
42 4 0 50 -76 104 -168 54 -92 130 -221 169 -287 39 -66 79 -135 90 -154 39
-69 250 -426 258 -436 4 -5 19 -30 32 -55 14 -25 90 -155 170 -290 79 -135
157 -266 172 -292 l27 -46 -28 -15 c-15 -8 -93 -52 -173 -97 -80 -46 -165 -94
-190 -108 -156 -89 -726 -415 -730 -419 -2 -2 36 -1 85 2 145 8 261 14 405 20
74 3 162 8 195 10 33 2 123 7 200 10 77 4 172 8 210 10 64 4 145 8 405 20 52
3 149 7 215 10 66 3 154 7 195 10 41 3 127 7 190 10 108 4 191 8 420 20 122 6
302 15 409 20 46 2 84 5 85 7 3 4 51 90 94 168 28 53 179 326 397 720 56 102
119 217 140 255 21 39 80 144 130 235 50 91 95 172 98 180 4 8 15 29 25 45 23
37 57 98 128 228 30 56 59 109 64 117 28 43 260 473 260 481 0 5 4 9 9 9 5 0
11 8 15 18 3 9 9 23 12 31 7 14 -7 7 -141 -71 -33 -19 -130 -76 -215 -125
-246 -143 -336 -195 -475 -276 l-130 -76 -18 22 c-9 12 -23 33 -30 47 -22 41
-49 86 -149 255 -52 88 -127 214 -165 280 -410 704 -445 760 -527 839 -124
117 -241 177 -436 223 l-145 34 -390 4 c-633 7 -1282 14 -1895 21 -937 9
-1037 11 -1046 17 -5 3 -30 8 -54 11 -25 4 -58 9 -75 13 -27 5 -232 12 -238 7z"/>
<path d="M10475 8146 c-60 -35 -227 -131 -370 -213 -143 -83 -336 -194 -430
-248 -93 -53 -174 -101 -180 -105 -5 -4 -35 -21 -66 -38 -31 -17 -153 -87
-270 -155 -118 -68 -260 -150 -317 -183 -57 -32 -117 -67 -134 -77 -78 -46
-297 -172 -338 -195 -25 -13 -81 -46 -125 -72 -44 -26 -102 -59 -128 -74 -30
-17 -47 -33 -43 -41 3 -8 39 -74 82 -147 42 -73 87 -151 99 -173 13 -22 71
-122 129 -223 58 -101 106 -185 106 -188 0 -2 11 -21 23 -42 30 -48 251 -430
290 -502 16 -30 33 -59 37 -65 4 -5 42 -71 84 -145 42 -74 81 -142 86 -150 12
-19 201 -349 216 -375 6 -11 55 -96 109 -190 54 -93 106 -185 117 -202 50 -89
76 -135 137 -239 22 -39 41 -74 41 -78 0 -5 -901 -2 -1845 7 l-159 2 3 145 c1
80 4 204 6 275 1 72 6 281 10 465 3 184 8 347 11 362 2 15 0 30 -6 33 -5 3
-10 1 -10 -5 0 -6 -11 -27 -24 -48 -12 -20 -24 -40 -24 -45 -1 -6 -37 -74
-112 -209 -8 -16 -34 -63 -56 -105 -41 -77 -79 -147 -126 -233 -14 -25 -47
-85 -73 -135 -26 -49 -60 -112 -75 -140 -25 -46 -129 -239 -212 -395 -20 -36
-47 -85 -60 -110 -14 -25 -44 -81 -68 -125 -24 -44 -55 -102 -70 -130 -15 -27
-49 -90 -75 -140 -26 -49 -56 -103 -65 -120 -10 -16 -39 -70 -65 -120 -51 -96
-106 -199 -202 -375 -122 -224 -117 -207 -78 -270 12 -19 39 -66 60 -105 21
-38 44 -77 51 -86 8 -8 14 -18 14 -21 0 -3 48 -88 106 -189 59 -101 118 -204
132 -229 14 -25 33 -57 43 -72 11 -14 19 -29 19 -33 0 -3 24 -47 54 -98 30
-51 63 -109 75 -130 12 -20 31 -54 43 -75 12 -20 31 -54 42 -74 20 -35 109
-190 437 -758 80 -140 156 -271 166 -290 70 -124 136 -236 144 -244 5 -6 9 45
10 125 0 148 13 828 18 954 l1 31 203 -2 c1379 -15 1360 -15 1427 1 133 31
232 75 352 157 131 90 195 165 358 423 79 127 203 322 274 435 71 113 197 313
281 445 83 132 200 318 261 413 60 95 116 185 125 200 58 97 683 1079 704
1105 42 53 95 125 95 131 0 2 17 31 39 63 77 117 168 334 186 448 20 123 23
161 20 275 -3 134 -13 208 -46 335 -21 77 -73 220 -88 240 -5 6 -22 35 -38 65
-31 58 -39 71 -120 210 -27 47 -52 92 -56 100 -4 8 -21 38 -38 65 -17 28 -35
62 -42 78 -6 15 -15 27 -19 27 -4 0 -8 5 -8 10 0 6 -10 27 -23 48 -13 20 -37
62 -54 92 -17 30 -92 163 -168 295 -76 132 -149 260 -163 285 -14 25 -56 99
-95 165 -38 66 -80 138 -91 160 -12 22 -49 87 -83 145 -33 58 -71 123 -83 145
-50 89 -184 320 -189 327 -3 4 -55 -22 -116 -56z"/>
<path d="M16 7748 c3 -4 46 -32 97 -62 172 -101 852 -508 855 -511 3 -2 -85
-156 -128 -225 -6 -8 -74 -123 -151 -255 -549 -930 -535 -904 -566 -1049 -42
-200 -6 -444 91 -621 19 -33 66 -123 106 -200 40 -77 76 -144 80 -150 4 -5 35
-64 70 -130 35 -66 80 -151 100 -190 21 -38 59 -110 85 -160 26 -49 65 -121
85 -160 21 -38 59 -110 85 -160 26 -49 65 -121 85 -160 21 -38 61 -115 90
-170 29 -55 67 -127 85 -160 18 -33 52 -98 77 -145 48 -90 104 -194 167 -312
21 -40 80 -152 131 -248 51 -96 109 -206 130 -245 21 -38 58 -108 83 -155 25
-47 55 -110 67 -140 31 -81 107 -235 153 -310 166 -271 397 -449 719 -555 99
-32 139 -43 228 -61 19 -4 625 -8 1345 -8 l1311 -1 -3 1440 c-1 792 -2 1449
-3 1460 0 20 -6 20 -1570 19 -863 0 -1570 1 -1570 4 0 3 20 39 44 81 24 42 53
92 64 111 83 146 279 484 303 523 16 26 29 50 29 53 0 3 16 30 35 60 19 30 35
57 35 59 0 3 11 22 24 43 20 32 310 531 340 587 45 82 121 205 127 205 8 0
156 -87 229 -135 28 -18 692 -420 839 -508 23 -14 32 -16 26 -6 -5 8 -29 48
-55 89 -26 41 -77 125 -115 185 -37 61 -85 137 -105 170 -21 33 -97 157 -170
275 -73 118 -160 260 -195 315 -34 55 -117 190 -185 300 -67 110 -130 211
-139 225 -9 14 -20 33 -26 43 -30 53 -548 888 -575 927 l-17 25 -1426 0 c-784
0 -1423 -3 -1421 -7z"/>
</g>
</svg>
