<?xml version="1.0" standalone="no"?>
<!DOCTYPE svg PUBLIC "-//W3C//DTD SVG 20010904//EN"
 "http://www.w3.org/TR/2001/REC-SVG-20010904/DTD/svg10.dtd">
<svg version="1.0" xmlns="http://www.w3.org/2000/svg"
 width="640.000000pt" height="640.000000pt" viewBox="0 0 640.000000 640.000000"
 preserveAspectRatio="xMidYMid meet">
<metadata>
Created by potrace 1.11, written by Peter Selinger 2001-2013
</metadata>
<g transform="translate(0.000000,640.000000) scale(0.100000,-0.100000)"
fill="#000000" stroke="none">
<path d="M2748 6028 c-36 -62 -78 -135 -93 -163 -15 -27 -35 -61 -45 -75 -9
-14 -45 -76 -81 -138 -35 -62 -71 -125 -80 -140 -9 -15 -27 -47 -41 -72 -14
-25 -49 -85 -78 -135 -29 -49 -61 -106 -72 -125 -36 -62 -249 -432 -320 -553
l-70 -119 63 -106 c34 -59 70 -123 80 -142 10 -19 67 -118 126 -220 l108 -185
375 -2 375 -3 55 91 c30 50 65 108 77 128 13 20 30 51 40 69 9 17 20 32 23 32
3 0 22 -28 41 -62 20 -35 77 -135 129 -223 51 -88 104 -180 118 -205 14 -25
35 -61 47 -80 38 -60 38 -73 4 -131 -38 -64 -55 -94 -99 -174 -18 -33 -40 -68
-48 -77 -13 -15 -6 -21 82 -62 53 -24 106 -48 119 -52 12 -3 27 -10 32 -14 6
-4 71 -35 145 -68 213 -95 582 -262 614 -278 32 -16 -1 -42 276 224 63 60 145
139 183 174 37 35 67 67 67 72 0 4 8 20 19 34 10 15 29 47 43 72 14 25 58 101
98 170 39 69 82 143 95 165 12 22 43 75 68 118 37 62 43 77 29 78 -9 0 -94 0
-188 1 -163 0 -171 1 -184 22 -7 11 -40 68 -73 126 -33 58 -69 121 -82 140
-12 19 -43 73 -70 119 -45 81 -60 107 -104 185 -11 18 -38 64 -60 101 -23 37
-41 69 -41 71 0 2 -22 41 -49 86 -27 46 -58 101 -70 122 -27 47 -190 330 -236
406 -37 63 -358 620 -394 683 -13 23 -48 84 -78 135 l-54 92 -378 0 -378 0
-65 -112z"/>
<path d="M1140 3857 c0 -4 41 -77 90 -162 81 -139 89 -158 79 -178 -7 -12 -96
-166 -197 -342 -102 -176 -193 -333 -201 -348 -9 -16 -20 -36 -26 -45 -5 -9
-35 -60 -64 -112 -30 -52 -97 -166 -148 -253 -51 -88 -93 -161 -93 -163 0 -3
-16 -30 -35 -60 -19 -30 -35 -56 -35 -58 0 -2 -37 -68 -83 -147 -46 -79 -161
-278 -255 -441 l-172 -297 24 -43 c52 -94 348 -603 353 -608 10 -11 1884 -6
1892 5 5 5 91 151 190 324 128 220 180 319 175 333 -3 10 -31 63 -63 116 -31
53 -113 193 -180 310 l-124 212 -106 1 c-95 1 -206 4 -253 8 -13 1 -6 19 36
89 28 48 112 192 186 320 l134 232 193 0 193 0 -5 38 c-4 38 -12 108 -20 190
-2 26 -7 76 -11 112 -3 36 -7 81 -9 100 -2 19 -6 58 -9 85 -3 28 -8 79 -11
115 -3 36 -7 81 -10 100 -2 19 -7 66 -10 103 -4 37 -8 76 -10 85 -1 9 -6 55
-10 102 -4 47 -10 88 -14 93 -7 7 -107 37 -471 141 -63 19 -128 37 -145 41
-39 11 -775 13 -775 2z"/>
<path d="M4658 2805 c-21 -38 -43 -77 -48 -85 -46 -74 -250 -433 -250 -439 0
-5 -7 -14 -15 -21 -8 -7 -15 -19 -15 -28 0 -8 39 -85 86 -171 48 -86 88 -158
90 -161 1 -3 -166 -5 -371 -5 l-373 0 -97 167 c-70 121 -100 164 -108 157 -17
-14 -568 -410 -647 -465 -165 -113 -255 -185 -253 -202 1 -9 34 -147 73 -307
40 -159 73 -298 75 -308 4 -20 101 -193 121 -217 7 -8 13 -18 13 -23 0 -7 25
-50 184 -321 l70 -119 17 34 c9 19 51 93 93 165 l76 130 1322 0 1321 -1 19 35
c11 19 29 51 40 70 12 19 89 151 171 293 l149 258 -74 127 c-41 70 -87 150
-102 177 -15 28 -44 77 -64 110 -20 33 -45 76 -56 96 -20 36 -249 433 -292
506 -13 21 -26 45 -30 53 -4 8 -31 55 -60 104 -29 49 -53 90 -53 91 0 2 -43
76 -95 165 -52 89 -95 166 -95 170 0 4 -7 14 -16 21 -14 11 -90 14 -392 14
l-374 0 -40 -70z"/>
</g>
</svg>
